<svg width="135" height="135" viewBox="0 0 135 135" fill="none" xmlns="http://www.w3.org/2000/svg">
<path d="M108.795 66H98.2273C97.6023 62.9602 96.5085 60.2898 94.946 57.9886C93.4119 55.6875 91.5369 53.7557 89.321 52.1932C87.1335 50.6023 84.7045 49.4091 82.0341 48.6136C79.3636 47.8182 76.5795 47.4205 73.6818 47.4205C68.3977 47.4205 63.6108 48.7557 59.321 51.4261C55.0597 54.0966 51.6648 58.0312 49.1364 63.2301C46.6364 68.429 45.3864 74.8068 45.3864 82.3636C45.3864 89.9205 46.6364 96.2983 49.1364 101.497C51.6648 106.696 55.0597 110.631 59.321 113.301C63.6108 115.972 68.3977 117.307 73.6818 117.307C76.5795 117.307 79.3636 116.909 82.0341 116.114C84.7045 115.318 87.1335 114.139 89.321 112.577C91.5369 110.986 93.4119 109.04 94.946 106.739C96.5085 104.409 97.6023 101.739 98.2273 98.7273H108.795C108 103.187 106.551 107.179 104.449 110.702C102.347 114.224 99.733 117.222 96.608 119.693C93.483 122.136 89.9744 123.997 86.0824 125.276C82.2188 126.554 78.0852 127.193 73.6818 127.193C66.2386 127.193 59.6193 125.375 53.8239 121.739C48.0284 118.102 43.4688 112.932 40.1449 106.227C36.821 99.5227 35.1591 91.5682 35.1591 82.3636C35.1591 73.1591 36.821 65.2045 40.1449 58.5C43.4688 51.7955 48.0284 46.625 53.8239 42.9886C59.6193 39.3523 66.2386 37.5341 73.6818 37.5341C78.0852 37.5341 82.2188 38.1733 86.0824 39.4517C89.9744 40.7301 93.483 42.6051 96.608 45.0767C99.733 47.5199 102.347 50.5028 104.449 54.0256C106.551 57.5199 108 61.5114 108.795 66Z" fill="black"/>
<circle cx="28" cy="35" r="12.5" stroke="black" stroke-width="5"/>
</svg>
